<svg width="258" height="91" viewBox="0 0 258 91" fill="none" xmlns="http://www.w3.org/2000/svg">
<path d="M9.67133 88.4402C52.8664 88.4402 95.2433 80.4611 137.241 80.4611C155.627 80.4611 173.004 78.4663 192.084 78.4663C213.168 78.4663 231.969 82.4559 252.889 82.4559" stroke="#384896" stroke-width="5" stroke-linecap="round"/>
<path d="M255 82.5763C255 77.9265 255 73.2768 255 68.6271C255 64.1481 254.013 59.9052 253.818 55.5016C253.552 49.4947 251.455 43.7367 251.455 37.5982C251.455 27.0539 251.455 16.5096 251.455 5.96533" stroke="#384896" stroke-width="5" stroke-linecap="round"/>
<path d="M251.455 6.45985C242.024 6.45985 232.592 6.45985 223.161 6.45985C217.709 6.45985 212.247 5.96559 206.848 5.96559C201.633 5.96559 195.61 5.85155 190.469 5.08689C185.198 4.30299 179.689 4.73215 174.386 4.09837C167.763 3.30689 160.071 3.49426 153.379 3.49426C141.163 3.49426 129.085 3 116.879 3C106.583 3 96.2875 3 85.9919 3C74.8242 3 63.7707 3.81978 52.6761 3.98853C46.7838 4.07815 40.8888 4.45076 35.0827 5.36148C30.25 6.11953 25.1536 6.20929 20.4106 7.20125C15.2418 8.28226 9.21326 9.42544 3.90039 9.42544" stroke="#384896" stroke-width="5" stroke-linecap="round"/>
<path d="M3 10.8682C3 13.1277 3 15.3871 3 17.6466C3 20.7931 4.13501 23.8751 4.13501 27.0099C4.13501 29.1101 4.70251 31.1435 4.70251 33.2345C4.70251 34.9313 4.9974 36.9902 5.41189 38.6546C5.67887 39.7267 5.53916 40.8293 5.77446 41.912C5.98602 42.8853 6.29517 43.9612 6.38926 44.9451C6.5806 46.946 6.79813 48.8965 7.19322 50.8796C8.91469 59.5203 8.39128 68.5646 8.39128 77.3341C8.39128 79.0682 8.66676 81.097 8.1233 82.6883C7.89639 83.3526 7.82378 84.8423 7.82378 85.5236C7.82378 86.4463 7.54003 87.2961 7.54003 88.2535" stroke="#384896" stroke-width="5" stroke-linecap="round"/>
</svg>
