<svg width="261" height="91" viewBox="0 0 261 91" fill="none" xmlns="http://www.w3.org/2000/svg">
<path d="M251.249 88.4402C207.54 88.4402 164.659 80.4611 122.161 80.4611C103.556 80.4611 85.9717 78.4663 66.6646 78.4663C45.33 78.4663 26.3049 82.4559 5.13636 82.4559" stroke="#8B322F" stroke-width="5" stroke-linecap="round"/>
<path d="M3.00002 82.5763C3.00002 77.9265 3.00002 73.2768 3.00002 68.6271C3.00002 64.1481 3.99845 59.9052 4.19573 55.5016C4.46484 49.4947 6.58716 43.7367 6.58716 37.5982C6.58716 27.0539 6.58716 16.5096 6.58716 5.96533" stroke="#8B322F" stroke-width="5" stroke-linecap="round"/>
<path d="M6.58724 6.45985C16.1308 6.45985 25.6744 6.45985 35.2179 6.45985C40.7348 6.45985 46.2617 5.96559 51.7254 5.96559C57.0023 5.96559 63.0967 5.85155 68.2993 5.08689C73.6329 4.30299 79.208 4.73215 84.5743 4.09837C91.2758 3.30689 99.059 3.49426 105.831 3.49426C118.193 3.49426 130.414 3 142.766 3C153.184 3 163.602 3 174.02 3C185.321 3 196.506 3.81978 207.733 3.98853C213.695 4.07815 219.66 4.45076 225.535 5.36148C230.426 6.11953 235.583 6.20929 240.382 7.20125C245.613 8.28226 251.713 9.42544 257.089 9.42544" stroke="#8B322F" stroke-width="5" stroke-linecap="round"/>
<path d="M258 10.8682C258 13.1277 258 15.3871 258 17.6466C258 20.7931 256.851 23.8751 256.851 27.0099C256.851 29.1101 256.277 31.1435 256.277 33.2345C256.277 34.9313 255.979 36.9902 255.559 38.6546C255.289 39.7267 255.431 40.8293 255.193 41.912C254.978 42.8853 254.666 43.9612 254.57 44.9451C254.377 46.946 254.157 48.8965 253.757 50.8796C252.015 59.5203 252.545 68.5646 252.545 77.3341C252.545 79.0682 252.266 81.097 252.816 82.6883C253.045 83.3526 253.119 84.8423 253.119 85.5236C253.119 86.4463 253.406 87.2961 253.406 88.2535" stroke="#8B322F" stroke-width="5" stroke-linecap="round"/>
</svg>
